<?xml version="1.0" encoding="utf-8" ?><svg xmlns="http://www.w3.org/2000/svg" xmlns:xlink="http://www.w3.org/1999/xlink" width="1254" height="1254" viewBox="0 0 1254 1254"><path fill="white" d="M0 0L1254 0L1254 1254L0 1254L0 0Z"/><path fill="#0073EE" d="M329.241 776.882C278.623 767.089 227.773 741.097 196.252 700.492C104.317 582.066 174.243 413.993 281.301 331.701C292.351 323.207 314.397 306.328 328.81 304.92C329.871 304.817 332.041 306.515 332.284 307.423C335.462 312.761 325.542 323.401 321.995 327.865C309.278 343.509 296.357 359.008 284.063 374.988C233.459 440.766 188.517 546.176 242.436 623.256C260.034 648.281 286.886 665.255 317.041 670.415C335.837 673.631 355.116 672.557 373.438 667.274C399.377 659.895 415.348 648.378 438.262 635.78C453.455 627.263 469.413 620.189 485.926 614.651C506.416 607.865 523.458 604.585 544.492 600.699C580.397 594.065 631.325 591.501 661.639 570.358C701.282 542.71 685.392 496.507 679.611 457.18C676.734 437.607 675.714 418.568 679.053 398.733C685.008 361.787 705.461 328.746 735.874 306.941C771.581 282.048 816.61 274.586 858.439 286.629C870.215 290.045 880.993 295.315 891.536 299.589C893.838 300.522 911.7 301.2 916.554 302.024C944.192 278.509 983.504 274.767 1010.24 301.919C1029.07 321.037 1035.57 345.829 1035.67 372.064C1057.4 388.276 1074.2 404.379 1079.19 432.523C1083.07 454.398 1075.79 478.849 1062.97 496.683C1042.29 525.43 1009.37 540.473 975.48 547.395C968.98 548.722 962.477 549.173 956.005 550.273C953.816 554.056 947.856 554.977 943.612 556.453C887.482 575.964 888.925 606.741 878.865 657.802C877.384 665.318 874.452 674.887 872.176 682.394C871.225 685.534 867.436 696.264 867.169 698.701C853.948 729.858 839.118 752.763 813.998 775.822C808.03 780.694 801.249 786.447 794.975 790.808C760.411 814.834 719.073 829.364 677.831 836.748C677.896 839.389 678.087 842.457 677.77 845.04L677.797 845.781C678.767 866.823 687.094 902.795 701.38 918.377C715.784 934.086 744.47 919.739 758.134 933.286C771.486 946.523 760.964 963.203 743.6 963.064C729.618 962.951 711.181 944.801 700.659 951.716C700.1 952.937 699.651 953.754 700.583 955.091C706.232 963.167 720.396 969.378 717.217 981.624C713.974 994.118 698.52 997.709 687.434 994.557C668.238 989.1 674.488 965.304 656.399 959.231C652.614 957.96 648.681 957.95 644.974 959.895C631.618 968.094 628.807 988.645 606.143 981.516C600.285 979.705 595.41 975.599 592.63 970.134C585.906 956.898 601.496 948.708 610.655 943.469C614.588 941.22 618.782 934.396 618.18 929.636C613.881 903.712 603.891 878.748 598.192 853.044C597.609 850.414 596.902 847.381 596.119 844.891C592.893 845.021 583.082 844.88 580.97 845.128L578.914 848.353C568.722 848.806 510.379 844.876 508.003 836.329L507.65 836.239C506.356 834.461 497.201 833.493 494 832.692C473.15 827.512 452.861 820.291 433.427 811.134C429.919 817.232 427.194 821.222 422.527 826.541C411.62 841.501 390.775 856.834 377.794 870.926C358.261 892.134 348.005 908.047 385.7 913.59C415.896 918.031 405.005 955.863 377.114 949.257C361.483 945.911 352.897 924.028 335.315 929.686C326.306 932.585 326.623 943.782 326.842 951.255C326.94 954.569 326.056 958.514 324.569 961.504C315.028 982.06 272.404 971.998 284.751 947.095C286.172 943.741 296.605 933.59 293.878 929.577C286.175 918.244 266.157 935.044 259.479 939.887C247.082 948.878 229.879 947.64 222.741 933.498C220.896 929.842 221.387 923.71 223.06 920.072C228.925 907.547 243.525 907.792 255.194 905.936C266.976 903.552 280.582 898.136 287.265 887.508C294.756 875.593 297.763 860.469 301.552 846.95C303.905 838.448 306.624 830.051 309.7 821.783C314.311 809.515 319.598 797.115 325.921 785.627C327.377 782.983 328.874 780.418 330.076 777.644L330.28 777.159L329.241 776.882Z"/><path fill="#D7EDFC" d="M692.786 770.09C739.456 740.287 776.179 692.784 795.027 641.21C821.06 569.977 840.203 556.28 916.765 552.473L956.005 550.273C953.816 554.056 947.856 554.977 943.612 556.453C887.482 575.964 888.925 606.741 878.865 657.802C877.384 665.318 874.452 674.887 872.176 682.394C871.225 685.534 867.436 696.264 867.169 698.701C853.948 729.858 839.118 752.763 813.998 775.822C808.03 780.694 801.249 786.447 794.975 790.808C760.411 814.834 719.073 829.364 677.831 836.748C677.896 839.389 678.087 842.457 677.77 845.04C677.116 841.938 677.154 835.809 677.112 832.528C676.81 809.267 682.589 790.717 692.786 770.09Z"/><path fill="#D7EDFC" d="M439.269 794.832C489.568 812.902 536.047 818.627 588.969 810.466C589.338 820.54 591.848 833.268 595.533 842.716L596.119 844.891C592.893 845.021 583.082 844.88 580.97 845.128L578.914 848.353C568.722 848.806 510.379 844.876 508.003 836.329L507.65 836.239C506.356 834.461 497.201 833.493 494 832.692C473.15 827.512 452.861 820.291 433.427 811.134C436.67 804.744 437.788 801.817 439.269 794.832Z"/><path fill="#003291" d="M508.003 836.329C510.859 836.016 529.188 840.224 533.998 840.899C549.585 843.001 565.258 844.412 580.97 845.128L578.914 848.353C568.722 848.806 510.379 844.876 508.003 836.329Z"/><path fill="#003291" d="M588.969 810.466C588.126 784.679 594.297 766.939 609.031 745.878L609.797 746.155C596.647 772.07 592.881 792.272 594.033 821.595C594.18 825.338 595.896 840.406 595.533 842.716C591.848 833.268 589.338 820.54 588.969 810.466Z"/><path fill="#003291" d="M422.527 826.541C423.022 822.754 427.819 814.028 429.469 809.703C436.7 790.762 438.368 777.567 438.456 757.809C441.418 772.246 441.497 780.504 439.269 794.832C437.788 801.817 436.67 804.744 433.427 811.134C429.919 817.232 427.194 821.222 422.527 826.541Z"/><path fill="#003291" d="M329.241 776.882C330.39 773.679 340.876 759.622 343.718 758.618C340.058 764.544 334.484 771.263 330.28 777.159L329.241 776.882Z"/><path fill="#003291" d="M806.314 430.714C803.603 430.545 799.536 429.323 796.974 428.35C778.121 421.193 765.188 406.38 761.596 386.398C758.901 371.764 762.18 356.66 770.701 344.461C778.714 333.1 791.306 325.662 804.934 323.316C821.189 320.548 837.878 324.347 851.332 333.88C868.577 346.245 877.988 367.043 877.907 388.018C877.882 394.455 876.492 403.715 872.66 409.025C866.192 429.374 824.431 437.01 806.314 430.714Z"/><path fill="white" d="M825.489 337.586C840.127 342.327 848.452 348.051 858.174 360.511C866.974 371.789 874.851 394.928 872.66 409.025C866.192 429.374 824.431 437.01 806.314 430.714C842.129 420.381 852.679 379.523 834.64 348.761C832.174 344.556 828.836 341.107 825.489 337.586Z"/><path fill="white" d="M808.551 346.745C815.91 344.597 823.613 348.839 825.732 356.207C827.851 363.574 823.579 371.261 816.203 373.351C808.869 375.429 801.234 371.186 799.127 363.859C797.019 356.532 801.233 348.881 808.551 346.745Z"/><path fill="#003291" d="M776.82 447.108C779.587 447.113 781.569 447.353 784.115 448.369C786.351 450.403 785.375 453.162 786.444 453.98C845.771 499.391 928.382 503.112 998.08 483.193C1007.65 480.483 1015.49 477.858 1025.2 475.132C1037.8 471.597 1056.49 468.17 1066.84 478.832C1070.01 482.104 1066.73 490.454 1062.22 488.73C1046.11 476.562 1015.31 491.189 997.275 496.057C924.964 515.575 835.931 511.833 777.396 460.105C764.054 461.41 765.158 449.685 776.82 447.108Z"/><path fill="#003291" d="M1008.34 422.495C1018.66 422.242 1030.77 434.564 1019.49 441.171C1012.34 439.735 997.003 430.026 1008.34 422.495Z"/><path fill="#0073EE" d="M813.998 775.822C839.118 752.763 853.948 729.858 867.169 698.701C895.548 730.55 912.597 772.165 921.453 813.408C925.256 831.121 929.38 858.51 938.87 874.097C951.065 891.676 974.388 886.668 991.865 888.695C1008.32 890.603 1017.43 906.994 1003.34 920.014C987.26 934.869 956.35 902.479 947.566 913.634C947.906 920.665 966.104 925.25 966.479 937.338C967.107 957.579 938.515 960.484 927.471 949.003C917.931 939.084 916.979 920.448 898.278 920.446C879.605 920.444 879.295 943.063 859.912 942.937C844.451 944.571 827.935 925.657 842.179 912.942C850.415 905.591 868.632 903.185 867.623 889.074C864.856 850.389 835.889 805.529 813.998 775.822Z"/><path fill="#0073EE" d="M507.65 836.239L508.003 836.329C510.379 844.876 568.722 848.806 578.914 848.353C572.143 859.572 566.281 867.764 562.872 880.627C570.214 897.769 584.26 887.21 596.114 895.387C598.952 897.345 601.277 901.058 601.718 904.577C602.134 908.121 601.069 911.679 598.774 914.411C584.792 931.017 569.245 905.861 555.563 906.844C553.718 907.951 554.325 907.194 553.582 909.112C554.384 915.179 566.835 920.562 563.637 929.476C558.646 943.39 534.685 942.894 531.289 928.163C529.096 918.647 530.789 910.893 519.596 907.539L518.774 907.3C507.54 909.267 505.822 915.406 496.03 919.017C484.774 923.169 477.357 917.03 474.154 906.677C479.344 885.595 490.8 896.843 501.43 886.99C510.444 878.635 507.944 849.257 507.65 836.239Z"/></svg>